<svg id="Outlined_Icons" xmlns="http://www.w3.org/2000/svg" viewBox="0 0 91.24 70.67"><defs><style>.cls-1{fill:none;}.cls-2{fill:#336;}.cls-3{fill:#fff;}</style></defs><title>Security_Landing</title><path class="cls-1" d="M307,307.9v-4.62a8.14,8.14,0,0,1,4-7V291H237.38V346.9H311v-5.09a8.14,8.14,0,0,1-4-7v-4.62a8.15,8.15,0,0,1,4-7v-8.24A8.15,8.15,0,0,1,307,307.9Z" transform="translate(-230.02 -283.6)"/><path class="cls-2" d="M315.1,342.94a8.09,8.09,0,0,1-4.12-1.13v5.09H237.38V291H311v5.3a8.09,8.09,0,0,1,4.12-1.13H316a5.2,5.2,0,0,1,2.36.58v-6.23h0a5.9,5.9,0,0,0-5.89-5.89H235.9a5.9,5.9,0,0,0-5.89,5.89v58.89a5.9,5.9,0,0,0,5.89,5.89h76.55a5.9,5.9,0,0,0,5.89-5.89h0v-6a5.2,5.2,0,0,1-2.36.58Z" transform="translate(-230.02 -283.6)"/><path class="cls-2" d="M316,316h-.88a8.09,8.09,0,0,1-4.12-1.13v8.24A8.09,8.09,0,0,1,315.1,322H316a5.2,5.2,0,0,1,2.36.58v-7.15A5.2,5.2,0,0,1,316,316Z" transform="translate(-230.02 -283.6)"/><path class="cls-3" d="M315.1,299.68a3.6,3.6,0,0,0-3.6,3.6v4.62a3.6,3.6,0,0,0,3.6,3.6H316a.72.72,0,0,0,.72-.72V300.4a.72.72,0,0,0-.72-.72Z" transform="translate(-230.02 -283.6)"/><path class="cls-2" d="M315.1,295.13a8.18,8.18,0,0,0-8.15,8.15v4.62A8.18,8.18,0,0,0,315.1,316H316a5.2,5.2,0,0,0,2.36-.58,5.26,5.26,0,0,0,2.91-4.68V300.4a5.26,5.26,0,0,0-2.91-4.68,5.2,5.2,0,0,0-2.36-.58Zm1.6,5.27v10.38a.72.72,0,0,1-.72.72h-.88a3.6,3.6,0,0,1-3.6-3.6v-4.62a3.6,3.6,0,0,1,3.6-3.6H316A.72.72,0,0,1,316.71,300.4Z" transform="translate(-230.02 -283.6)"/><path class="cls-3" d="M315.1,326.58a3.6,3.6,0,0,0-3.6,3.6v4.62a3.6,3.6,0,0,0,3.6,3.6H316a.72.72,0,0,0,.72-.72V327.3a.72.72,0,0,0-.72-.72Z" transform="translate(-230.02 -283.6)"/><path class="cls-2" d="M315.1,322a8.18,8.18,0,0,0-8.15,8.15v4.62a8.18,8.18,0,0,0,8.15,8.15H316a5.2,5.2,0,0,0,2.36-.58,5.26,5.26,0,0,0,2.91-4.68V327.3a5.26,5.26,0,0,0-2.91-4.68A5.2,5.2,0,0,0,316,322Zm1.6,5.27v10.38a.72.72,0,0,1-.72.72h-.88a3.6,3.6,0,0,1-3.6-3.6v-4.62a3.6,3.6,0,0,1,3.6-3.6H316A.72.72,0,0,1,316.71,327.3Z" transform="translate(-230.02 -283.6)"/><path class="cls-2" d="M273.52,311.73a8.09,8.09,0,1,0,5.72,2.37A8,8,0,0,0,273.52,311.73Zm3.25,8.1a3.23,3.23,0,0,1-1,2.3,3.32,3.32,0,0,1-4.59,0,3.25,3.25,0,1,1,5.54-2.3Z" transform="translate(-230.02 -283.6)"/><path class="cls-2" d="M286.61,306.73A18.51,18.51,0,1,0,292,319.83,18.39,18.39,0,0,0,286.61,306.73ZM286,317.41a2.42,2.42,0,0,0,0,4.85H287a13.5,13.5,0,0,1-2.22,5.36l-.65-.65a2.42,2.42,0,1,0-3.43,3.43l.65.65a13.5,13.5,0,0,1-5.36,2.22v-.92a2.42,2.42,0,1,0-4.85,0v.92a13.5,13.5,0,0,1-5.37-2.22l.65-.65a2.42,2.42,0,0,0,0-3.43,2.48,2.48,0,0,0-3.43,0l-.65.65a13.5,13.5,0,0,1-2.23-5.37H261a2.42,2.42,0,1,0,0-4.85h-.92A13.5,13.5,0,0,1,262.3,312l.65.65a2.42,2.42,0,0,0,3.43-3.43l-.65-.65a13.5,13.5,0,0,1,5.37-2.22v.92a2.42,2.42,0,0,0,4.85,0v-.92a13.5,13.5,0,0,1,5.37,2.23l-.65.65a2.42,2.42,0,1,0,3.43,3.43l.65-.65a13.5,13.5,0,0,1,2.22,5.37Z" transform="translate(-230.02 -283.6)"/></svg>